<svg width="306" height="59" viewBox="0 0 306 59" fill="none" xmlns="http://www.w3.org/2000/svg">
<path d="M249.763 43.4536H240.399C239.477 43.4536 238.71 42.7676 238.636 41.8825L236.249 12.5335C236.175 11.593 236.896 10.7742 237.869 10.6967C237.915 10.6912 237.961 10.6912 238.006 10.6912H247.371C248.292 10.6912 249.059 11.3772 249.134 12.2624L251.526 41.6169C251.6 42.5574 250.879 43.3762 249.906 43.4536C249.855 43.4536 249.809 43.4536 249.763 43.4536Z" fill="#FFF964" stroke="#4F232A" stroke-width="2.8346" stroke-miterlimit="10"/>
<path d="M269.419 43.4979H260.054C259.133 43.4979 258.366 42.8119 258.292 41.9268L255.905 12.5778C255.836 11.6317 256.569 10.8074 257.547 10.741C257.588 10.741 257.628 10.7355 257.662 10.7355H267.026C267.948 10.7355 268.715 11.4215 268.789 12.3067L271.176 41.6557C271.25 42.5962 270.529 43.415 269.556 43.4924C269.51 43.498 269.464 43.4979 269.419 43.4979Z" fill="#FFF964" stroke="#4F232A" stroke-width="2.8346" stroke-miterlimit="10"/>
<path d="M302.685 10.9017H287.763C286.956 10.9072 286.258 11.4383 286.058 12.1962L274.444 54.9058C274.181 55.8297 274.742 56.7868 275.703 57.0468C275.852 57.0855 276.001 57.1077 276.15 57.1077H291.072C291.879 57.1021 292.577 56.571 292.778 55.8131L304.391 13.1035C304.654 12.1796 304.093 11.2225 303.132 10.9625C302.989 10.9238 302.84 10.9017 302.685 10.9017Z" fill="#FFF964" stroke="#4F232A" stroke-width="2.8346" stroke-miterlimit="10"/>
<path d="M226.671 14.7227C226.545 14.695 226.419 14.6784 226.287 14.6784H190.817L191.366 11.4365C191.538 10.4905 190.886 9.59423 189.907 9.42826C189.815 9.41166 189.718 9.40614 189.621 9.4006H171.608C170.738 9.40614 170 10.0258 169.868 10.8556L169.227 14.6674H162.33C161.477 14.6784 160.75 15.2704 160.601 16.0781L159.382 22.3794C159.193 23.3144 159.823 24.2272 160.796 24.4098C160.899 24.4319 161.007 24.4375 161.11 24.443H167.578L162.427 54.9759C162.255 55.9219 162.908 56.8182 163.886 56.9841C163.978 57.0007 164.075 57.0063 164.173 57.0118H182.191C183.061 57.0063 183.8 56.3867 183.931 55.5568L189.186 24.4485H204.319L199.168 54.9815C198.996 55.9275 199.649 56.8237 200.628 56.9897C200.719 57.0063 200.817 57.0118 200.914 57.0173H220.134C221.004 57.0118 221.743 56.3922 221.874 55.5623L228.428 16.7475C228.594 15.8015 227.936 14.9108 226.957 14.7504C226.86 14.7338 226.763 14.7227 226.671 14.7227Z" fill="#FFF964" stroke="#4F232A" stroke-width="2.8346" stroke-miterlimit="10"/>
<path d="M7.16861 23.706V14.4837C7.16289 13.9415 7.60935 13.4989 8.17028 13.4934L74.2173 7.31375C74.7782 7.31928 75.2247 7.76187 75.219 8.30404V18.2622C75.2247 18.8044 74.7782 19.247 74.2173 19.2525L57.8472 21.0561C57.355 21.0616 56.9371 21.4101 56.857 21.8804L56.0328 27.6893C55.9355 28.226 56.3018 28.7349 56.857 28.829C56.9142 28.84 56.9657 28.8456 57.023 28.8456H74.9614C75.5223 28.8511 75.9688 29.2937 75.9631 29.8359V39.0582C75.9688 39.6004 75.5223 40.043 74.9614 40.0485H54.7106C54.2183 40.0541 53.8005 40.3971 53.7261 40.8673L51.1503 56.2748C51.0759 56.7451 50.6581 57.0936 50.1659 57.0936H26.9329C26.372 57.0881 25.9255 56.64 25.9313 56.0978C25.9313 56.0425 25.937 55.9927 25.9484 55.9429L28.3353 41.1882C28.4326 40.6516 28.0605 40.1426 27.511 40.0485C27.4595 40.0375 27.4023 40.0319 27.3508 40.0319H7.43763C6.8767 40.0264 6.43024 39.5838 6.43597 39.0416V29.8193C6.43024 29.2771 6.8767 28.8345 7.43763 28.829H29.6689C30.1611 28.8234 30.579 28.4749 30.6591 28.0047L31.4834 23.6452C31.5807 23.1086 31.2143 22.5996 30.6591 22.5055C30.6019 22.4945 30.5504 22.4889 30.4931 22.4889L8.176 24.6687C7.61507 24.6797 7.16289 24.2427 7.16861 23.706Z" fill="#FFF964" stroke="#4F232A" stroke-width="2.8346" stroke-miterlimit="10"/>
<path d="M95.8362 57.0991C90.0608 57.2817 87.0787 54.6096 86.8956 49.0828V18.395C86.9414 12.6414 89.9177 9.80882 95.8362 9.90287H142.05C148.146 9.90287 151.128 12.8959 150.991 18.8763V48.4687C151.037 54.3164 148.054 57.1932 142.05 57.0991H95.8362ZM128.96 45.9515V21.4544C128.966 20.9399 128.542 20.5249 128.01 20.5194H109.121C108.589 20.5249 108.165 20.9454 108.171 21.4544V45.9515C108.165 46.466 108.589 46.8809 109.121 46.8865H128.01C128.542 46.8865 128.966 46.466 128.96 45.9515Z" fill="#FFF964" stroke="#4F232A" stroke-width="2.8346" stroke-miterlimit="10"/>
<path d="M245.316 38.2479H235.952C235.03 38.2479 234.263 37.5619 234.189 36.6767L231.802 7.32774C231.727 6.38724 232.449 5.56846 233.422 5.49101C233.467 5.48547 233.513 5.48547 233.559 5.48547H242.923C243.845 5.48547 244.612 6.17148 244.686 7.05665L247.073 36.4057C247.147 37.3461 246.426 38.1649 245.453 38.2424C245.407 38.2479 245.362 38.2479 245.316 38.2479Z" fill="#FFFFF8" stroke="#4F232A" stroke-width="2.8346" stroke-miterlimit="10"/>
<path d="M264.971 38.2867H255.607C254.686 38.2867 253.919 37.6007 253.844 36.7155L251.457 7.3665C251.389 6.42047 252.121 5.59615 253.1 5.52976C253.14 5.52976 253.18 5.52423 253.215 5.52423H262.579C263.5 5.52423 264.267 6.21024 264.342 7.09541L266.729 36.4444C266.803 37.3849 266.082 38.2037 265.109 38.2811C265.063 38.2867 265.017 38.2867 264.971 38.2867Z" fill="#FFFFF8" stroke="#4F232A" stroke-width="2.8346" stroke-miterlimit="10"/>
<path d="M298.238 5.69595H283.316C282.509 5.70149 281.811 6.23259 281.61 6.99052L269.997 49.7001C269.733 50.624 270.294 51.5811 271.256 51.8411C271.405 51.8798 271.554 51.902 271.702 51.902H286.624C287.431 51.8964 288.13 51.3653 288.33 50.6074L299.944 7.89782C300.207 6.97392 299.646 6.01683 298.684 5.75681C298.541 5.71808 298.393 5.69595 298.238 5.69595Z" fill="#FFFFF8" stroke="#4F232A" stroke-width="2.8346" stroke-miterlimit="10"/>
<path d="M222.224 9.59317C222.098 9.56551 221.972 9.5489 221.84 9.5489H186.37L186.919 6.30697C187.091 5.36094 186.438 4.4647 185.46 4.29873C185.368 4.28213 185.271 4.27659 185.173 4.27106H167.161C166.29 4.27659 165.552 4.89621 165.42 5.72606L164.779 9.53784H157.882C157.029 9.54891 156.302 10.1409 156.154 10.9486L154.934 17.2499C154.746 18.1849 155.375 19.0977 156.348 19.2803C156.451 19.3024 156.56 19.3079 156.663 19.3135H163.131L157.98 49.8464C157.808 50.7924 158.46 51.6886 159.439 51.8546C159.531 51.8712 159.628 51.8767 159.725 51.8823H177.744C178.614 51.8767 179.352 51.2571 179.484 50.4273L184.738 19.319H199.872L194.721 49.8519C194.549 50.7979 195.201 51.6942 196.18 51.8601C196.272 51.8767 196.369 51.8823 196.466 51.8878H215.687C216.557 51.8823 217.295 51.2626 217.427 50.4328L223.981 11.618C224.147 10.672 223.488 9.78126 222.51 9.62082C222.412 9.60423 222.321 9.5987 222.224 9.59317Z" fill="#FFFFF8" stroke="#4F232A" stroke-width="2.8346" stroke-miterlimit="10"/>
<path d="M2.72125 18.5002V9.27783C2.71553 8.73566 3.16198 8.29307 3.72292 8.28754L69.7699 2.10794C70.3309 2.11347 70.7773 2.55605 70.7716 3.09822V13.0564C70.7773 13.5986 70.3309 14.0412 69.7699 14.0467L53.3998 15.8502C52.9076 15.8558 52.4898 16.2043 52.4096 16.6746L51.5854 22.4835C51.4881 23.0201 51.8544 23.5291 52.4096 23.6232C52.4669 23.6342 52.5184 23.6397 52.5756 23.6397H70.514C71.075 23.6453 71.5214 24.0879 71.5157 24.63V33.8524C71.5214 34.3946 71.075 34.8372 70.514 34.8427H50.2632C49.771 34.8482 49.3531 35.1913 49.2787 35.6615L46.7144 51.0801C46.64 51.5503 46.2222 51.8989 45.7299 51.8989H22.497C21.9361 51.8934 21.4896 51.4452 21.4953 50.9031C21.4953 50.8477 21.5011 50.7979 21.5125 50.7482L23.8993 35.9934C23.9966 35.4568 23.6246 34.9478 23.0751 34.8538C23.0236 34.8427 22.9664 34.8372 22.9148 34.8372H3.00172C2.44079 34.8316 1.99433 34.3891 2.00005 33.8469V24.6245C1.99433 24.0823 2.44079 23.6397 3.00172 23.6342H25.233C25.7252 23.6287 26.1431 23.2801 26.2232 22.8099L27.0474 18.4504C27.1447 17.9138 26.7784 17.4048 26.2232 17.3108C26.166 17.2997 26.1145 17.2942 26.0572 17.2942L3.74009 19.4739C3.16771 19.4739 2.71553 19.0368 2.72125 18.5002Z" fill="#FFFFF8" stroke="#4F232A" stroke-width="2.8346" stroke-miterlimit="10"/>
<path d="M91.3887 51.8878C85.6134 52.0704 82.6313 49.3983 82.4481 43.8715V13.1837C82.4939 7.43004 85.4703 4.59749 91.3887 4.69154H137.603C143.699 4.69154 146.681 7.68453 146.543 13.665V43.2574C146.589 49.1051 143.607 51.9819 137.603 51.8878H91.3887ZM124.512 40.7457V16.2486C124.518 15.7341 124.095 15.3191 123.562 15.3136H104.674C104.141 15.3191 103.718 15.7396 103.724 16.2486V40.7457C103.718 41.2602 104.141 41.6752 104.674 41.6807H123.562C124.095 41.6752 124.518 41.2547 124.512 40.7457Z" fill="#FFFFF8" stroke="#4F232A" stroke-width="2.8346" stroke-miterlimit="10"/>
</svg>
